<svg width="38" height="38" viewBox="0 0 38 38" fill="none" xmlns="http://www.w3.org/2000/svg">
<path d="M0 19C0 8.50659 8.50659 0 19 0C29.4934 0 38 8.50659 38 19C38 29.4934 29.4934 38 19 38C8.50659 38 0 29.4934 0 19Z" fill="#DB2777"/>
<path fill-rule="evenodd" clip-rule="evenodd" d="M24.2494 10.9883C24.2559 11.5406 23.8134 11.9935 23.2612 11.9999L21.4702 12.0208C21.4697 12.0208 21.47 12.0209 21.4702 12.0208C21.4702 12.0208 21.4696 12.0209 21.4691 12.0213L21.4682 12.0222L20.1982 15.7525H23.0179C23.5798 15.7525 24.1721 15.9912 24.5578 16.5049C25.4634 17.711 26 19.2197 26 20.8515C26 24.7764 22.8889 28.0001 19 28.0001C15.1111 28.0001 12 24.7764 12 20.8515C12 19.2197 12.5366 17.711 13.4422 16.5049C13.8279 15.9912 14.4202 15.7525 14.9821 15.7525H18.0864C18.0903 15.7392 18.0945 15.7259 18.0991 15.7126L19.5745 11.3784C19.8479 10.5754 20.5981 10.0309 21.4469 10.021L23.2378 10.0001C23.7901 9.99363 24.243 10.4361 24.2494 10.9883ZM15.0069 17.7525C14.8843 17.9197 14.7713 18.0949 14.6688 18.2772H23.3312C23.2287 18.0949 23.1157 17.9197 22.9931 17.7525H15.0069ZM23.9693 20.2772H14.0307C14.0104 20.4656 14 20.6573 14 20.8515C14 23.7182 16.2615 26.0001 19 26.0001C21.7385 26.0001 24 23.7182 24 20.8515C24 20.6573 23.9896 20.4656 23.9693 20.2772Z" fill="white"/>
</svg>
